<svg xmlns="http://www.w3.org/2000/svg" width="373.5" height="438.896" viewBox="0 0 373.5 438.896">
  <g>
    <path fill="none" stroke="rgb(51,51,51)" stroke-linecap="butt" stroke-linejoin="round" stroke-width="15" d="M7.49999387 415.88653419l213.00067557-392.8772868"/>
    <path fill="none" stroke="rgb(51,51,51)" stroke-linecap="butt" stroke-linejoin="bevel" stroke-width="15" d="M143.5 29.49998552l-86 46.30597015 86 38.69402985"/>
    <ellipse cx="241.5" cy="95.5" fill="rgb(51,51,51)" rx="12" ry="12"/>
    <path fill="rgb(51,51,51)" fill-rule="evenodd" d="M355.19911274 146.5C366.59439103 133.55850885 373.5 116.63813438 373.5 98.13242551c0-40.63884992-33.30223258-73.63243999-74.32124352-73.63243999 0 0 20.51813471 3.61386209 20.51813471 23.0383708 0 6.33518546 0 15.81064662-14.6203331 21.77026647 0 0-19.57655809 3.97850089-19.57655809 32.4376648 0 0 0 23.94183633 25.9896373 30.26609498 25.98963731 6.32425865 38.75647669-19.42450871 38.75647669-19.42450871C359.36528497 127.0433222 355.19911274 146.5 355.19911274 146.5z"/>
    <path fill="none" stroke="rgb(51,51,51)" stroke-linecap="butt" stroke-linejoin="miter" stroke-width="15" d="M319.5 150.99998552c0 82.51129616-66.98870384 149.5-149.5 149.5-22.8065583 0-44.4271924-5.11792903-63.77507538-14.26696018"/>
  </g>
</svg>
